<svg xmlns="http://www.w3.org/2000/svg" version="1.1" xmlns:xlink="http://www.w3.org/1999/xlink" xmlns:svgjs="http://svgjs.dev/svgjs" width="1500" height="727" viewBox="0 0 1500 727"><g transform="matrix(1,0,0,1,-0.9090909090909918,-0.7835234945490015)"><svg viewBox="0 0 396 192" data-background-color="#0a1627" preserveAspectRatio="xMidYMid meet" height="727" width="1500" xmlns="http://www.w3.org/2000/svg" xmlns:xlink="http://www.w3.org/1999/xlink"><g id="tight-bounds" transform="matrix(1,0,0,1,0.2400000000000091,0.20692780048611326)"><svg viewBox="0 0 395.52 191.58614439902777" height="191.58614439902777" width="395.52"><g><svg viewBox="0 0 395.52 191.58614439902777" height="191.58614439902777" width="395.52"><g><svg viewBox="0 0 395.52 191.58614439902777" height="191.58614439902777" width="395.52"><g id="textblocktransform"><svg viewBox="0 0 395.52 191.58614439902777" height="191.58614439902777" width="395.52" id="textblock"><g><svg viewBox="0 0 395.52 191.58614439902777" height="191.58614439902777" width="395.52"><g transform="matrix(1,0,0,1,0,0)"><svg width="395.52" viewBox="2.256666666667 -40.3 83.81333333333299 40.599999999999994" height="191.58614439902777" data-palette-color="#fe0039"><path d="M8.72-3.18L8.72 0.3Q5.45 0.05 3.95-1.56 2.45-3.18 2.35-6.58L2.35-6.58Q2.33-8 2.31-9.24 2.3-10.48 2.33-11.74 2.35-13 2.4-14.48L2.4-14.48 6.23-14.48Q6.13-12.25 6.11-10.21 6.1-8.18 6.23-6.08L6.23-6.08Q6.28-4.7 6.84-4.03 7.4-3.35 8.72-3.18L8.72-3.18ZM11.4 0.3L11.4 0.3 11.4-3.18Q12.63-3.38 13.15-4.04 13.68-4.7 13.78-6.08L13.78-6.08Q13.88-7.15 13.89-8.41 13.9-9.68 13.86-10.93 13.83-12.18 13.78-13.28L13.78-13.28Q13.73-15.28 12.98-16.28 12.23-17.28 10.53-17.7L10.53-17.7 7.75-18.38Q5.7-18.88 4.53-19.84 3.35-20.8 2.85-22.43 2.35-24.05 2.27-26.55L2.27-26.55Q2.25-28.18 2.26-29.94 2.27-31.7 2.3-33.5L2.3-33.5Q2.4-36.88 3.9-38.48 5.4-40.08 8.72-40.3L8.72-40.3 8.72-36.83Q7.45-36.65 6.89-35.99 6.33-35.33 6.28-33.95L6.28-33.95Q6.18-32.05 6.18-30.28 6.18-28.5 6.28-26.55L6.28-26.55Q6.33-24.4 6.88-23.39 7.43-22.38 8.78-22.05L8.78-22.05 11.4-21.45Q13.75-20.9 15.11-19.93 16.48-18.95 17.09-17.32 17.7-15.7 17.78-13.28L17.78-13.28Q17.82-12.23 17.82-11.06 17.82-9.9 17.8-8.75 17.78-7.6 17.75-6.58L17.75-6.58Q17.6-3.18 16.13-1.55 14.65 0.08 11.4 0.3ZM17.55-26.13L13.7-26.13Q13.78-28.43 13.79-30.3 13.8-32.18 13.73-33.95L13.73-33.95Q13.68-35.3 13.15-35.98 12.63-36.65 11.4-36.85L11.4-36.85 11.4-40.3Q14.58-40.05 16.03-38.45 17.48-36.85 17.6-33.45L17.6-33.45Q17.65-31.9 17.63-30.04 17.6-28.18 17.55-26.13L17.55-26.13ZM47.97 0L39.82 0 38.7-13.13 37.2-36.27 35.27-36.27 33.95-13.13 33.25-5.48 29.75-5.48 30.9-24.95 32.2-39.75 40.2-39.75 41.57-24.95 43-3.6 48.22-3.6 47.97 0ZM32.67 0L24.47 0 21.8-40 25.75-40 26.65-24.95 27.7-3.6 33.07-3.6 32.67 0ZM48.37-5.48L44.9-5.48 45.9-24.95 46.77-40 50.77-40 48.37-5.48ZM56.92 0L52.85 0 57.15-40 65.4-40 65.77-36.43 60.22-36.43 59.3-23.4 58.47-14.88 62.65-14.88 61.7-11.3 58.1-11.3 56.92 0ZM69.59 0L65.55 0 63.25-23.48 62.42-34.38 65.92-34.38 69.59 0ZM79.99 0L76.04 0 76.04-34.63 79.99-34.63 79.99 0ZM86.07-36.43L69.94-36.43 69.94-40 86.07-40 86.07-36.43Z" opacity="1" transform="matrix(1,0,0,1,0,0)" fill="#fe0039" class="wordmark-text-0" data-fill-palette-color="primary" id="text-0"></path></svg></g></svg></g></svg></g></svg></g><g></g></svg></g><defs></defs></svg><rect width="395.52" height="191.58614439902777" fill="none" stroke="none" visibility="hidden"></rect></g></svg></g></svg>